<svg height="512" viewBox="0 0 61 60" width="512" xmlns="http://www.w3.org/2000/svg"><g id="Page-1" fill="none" fill-rule="evenodd"><g id="038---Cloud-Data" fill="rgb(0,0,0)" fill-rule="nonzero"><path id="Shape" d="m28.971 18.231h.086c2.7588093-.2040887 5.4972698-.6250559 8.19-1.259.5323481-.1388062.8525954-.6815504.716707-1.2146508-.1358883-.5331004-.6768703-.8563156-1.210707-.7233492-2.5864278.605899-5.216561 1.0071397-7.866 1.2-.5522847.023196-.981196.4897153-.958 1.042s.4897153.981196 1.042.958z"/><circle id="Oval" cx="5" cy="11" r="1"/><path id="Shape" d="m5 14c-.55228475 0-1 .4477153-1 1v2c0 .5522847.44771525 1 1 1s1-.4477153 1-1v-2c0-.5522847-.44771525-1-1-1z"/><circle id="Oval" cx="5" cy="24" r="1"/><path id="Shape" d="m5 27c-.55228475 0-1 .4477153-1 1v2c0 .5522847.44771525 1 1 1s1-.4477153 1-1v-2c0-.5522847-.44771525-1-1-1z"/><circle id="Oval" cx="5" cy="37" r="1"/><path id="Shape" d="m5 40c-.55228475 0-1 .4477153-1 1v2c0 .5522847.44771525 1 1 1s1-.4477153 1-1v-2c0-.5522847-.44771525-1-1-1z"/><path id="Shape" d="m51.917 37.514c-.8938925-5.1394234-4.8172392-9.2222042-9.917-10.32v-22.194c0-4.943-20.143-5-21-5s-21 .057-21 5v40c0 2.045 3.382 3.506 10.042 4.35-.027.308-.042.62-.042.935 0 5.357 4.048 9.715 9.023 9.715h30.464c5.828 0 10.57-5.111 10.57-11.4.1393754-5.1214554-3.211792-9.6854655-8.14-11.086zm-11.973-10.514c-4.0055996.0321327-7.7262638 2.0773705-9.9 5.442-2.5627867-.5454034-5.2367682.0140055-7.366 1.541-.55.008-1.108.017-1.678.017-11.78 0-18.5-1.934-19-3.031v-10.607c5.109 2.599 18.309 2.638 19 2.638s13.891-.039 19-2.638v6.638c-.019 0-.037 0-.056 0zm.056-9.038c-.474 1.095-7.195 3.038-19 3.038-11.837 0-18.565-1.954-19-3v-10.638c5.109 2.599 18.309 2.638 19 2.638s13.891-.039 19-2.638zm-19-15.962c11.665 0 18.37 1.9 18.984 3-.614 1.1-7.319 3-18.984 3-11.8 0-18.526-1.943-19-2.943v-.019c.474-1.095 7.2-3.038 19-3.038zm-19 42.968v-11.606c4.66 2.371 16.045 2.612 18.534 2.638-1.0793597 1.3413049-1.8297145 2.9166733-2.191 4.6-3.791873.4011553-6.9438834 3.0986176-7.926 6.783-6.275-.79-8.217-2.009-8.417-2.415zm47.487 13.032h-30.464c-3.873 0-7.023-3.461-7.023-7.715s3.15-7.715 7.023-7.715h.144.019c.4991296-.000285.9216193-.3685766.99-.863.589-4.259 4-7.471 7.927-7.471.7167209-.0000141 1.4295933.1047607 2.116.311.4403831.1320225.9140433-.0532331 1.148-.449 1.7452448-3.1073322 5.0134236-5.0498734 8.577-5.098 5 0 9.348 4.079 10.108 9.487.0598263.4283606.3882633.7697092.814.846 4.167.742 7.191 4.642 7.191 9.272 0 5.181-3.844 9.395-8.57 9.395z"/></g></g></svg>